<svg width="36" height="36" viewBox="0 0 36 36" fill="none" xmlns="http://www.w3.org/2000/svg">
<g clip-path="url(#clip0_509_103)">
<circle cx="18" cy="18" r="18" fill="#A00705"/>
<path d="M17.3867 20.0062C15.7734 20.2961 14.4865 20.5597 13.5259 20.7969C13.2303 21.2976 13.0394 21.6336 12.9532 21.8049C12.6946 22.2925 12.4606 22.701 12.2512 23.0304C12.0542 23.3466 11.8387 23.6299 11.6047 23.8803C11.3461 24.157 11.1305 24.3547 10.9581 24.4733C10.798 24.5919 10.6071 24.6512 10.3855 24.6512C10.016 24.6512 9.68966 24.5655 9.4064 24.3942C9.13547 24.2097 9 24.0253 9 23.8408C9.02463 23.8144 9.1601 23.5245 9.4064 22.9711C9.65271 22.4045 10.1084 21.6995 10.7734 20.8561C10.7734 20.7507 10.7426 20.619 10.681 20.4608C10.6195 20.3027 10.5887 20.2105 10.5887 20.1841C10.5887 19.802 11.149 19.3408 12.2697 18.8005C12.8978 17.799 13.5567 16.8108 14.2463 15.8357C14.9483 14.8605 15.8042 13.7075 16.814 12.3766C17.0603 12.0472 17.3744 11.7771 17.7562 11.5663C18.1379 11.3554 18.5197 11.25 18.9015 11.25C19.2956 11.25 19.5911 11.2895 19.7882 11.3686C19.9852 11.4477 20.1084 11.5531 20.1576 11.6848C20.2192 11.8166 20.25 12.0011 20.25 12.2383C20.2007 12.6336 20.17 12.9301 20.1576 13.1277C19.9729 14.7222 19.8313 16.0926 19.7328 17.239C19.6466 18.3723 19.6034 19.5055 19.6034 20.6387C19.6034 21.6797 19.6466 22.6351 19.7328 23.5048C19.6958 23.821 19.5665 24.1109 19.3448 24.3745C19.1232 24.6248 18.8645 24.75 18.569 24.75C18.0025 24.75 17.6268 24.5985 17.4421 24.2954C17.2697 23.9923 17.1835 23.4784 17.1835 22.7537C17.1835 22.2266 17.2512 21.3108 17.3867 20.0062ZM14.9852 18.5238C15.2069 18.4711 15.5456 18.4118 16.0012 18.3459L17.4791 18.1087C17.5899 16.2771 17.7192 14.9594 17.867 14.1556C17.3867 14.7617 16.4261 16.2178 14.9852 18.5238Z" fill="#ECEBE9"/>
<path d="M22.9853 24.75C22.1225 24.75 21.451 24.443 20.9706 23.8289C20.4902 23.2149 20.25 22.432 20.25 21.4803C20.25 20.682 20.4314 19.9298 20.7941 19.2237C21.1667 18.5175 21.6716 17.9496 22.3088 17.5197C22.9461 17.0899 23.6471 16.875 24.4118 16.875C25.1667 16.875 25.7843 17.136 26.2647 17.6579C26.7549 18.1696 27 18.9269 27 19.9298C27 20.636 26.8137 21.3677 26.4412 22.125C26.0686 22.8823 25.5686 23.5117 24.9412 24.0132C24.3235 24.5044 23.6716 24.75 22.9853 24.75ZM23.2059 23.5219C23.5196 23.5219 23.8333 23.3173 24.1471 22.9079C24.4706 22.4985 24.7353 21.9817 24.9412 21.3575C25.1471 20.7332 25.25 20.1243 25.25 19.5307C25.25 18.6199 24.8873 18.1645 24.1618 18.1645C23.7598 18.1645 23.3922 18.364 23.0588 18.7632C22.7255 19.1623 22.4608 19.6586 22.2647 20.2522C22.0686 20.8355 21.9706 21.383 21.9706 21.8947C21.9706 22.1915 22.0343 22.4678 22.1618 22.7237C22.2892 22.9693 22.4461 23.1637 22.6324 23.307C22.8284 23.4503 23.0196 23.5219 23.2059 23.5219Z" fill="#ECEBE9"/>
</g>
<defs>
<clipPath id="clip0_509_103">
<rect width="36" height="36" rx="18" fill="white"/>
</clipPath>
</defs>
</svg>
