<svg width="512" height="512" viewBox="0 0 512 512" fill="none" xmlns="http://www.w3.org/2000/svg">
<path d="M247.277 284.533C224.333 288.656 206.03 292.404 192.368 295.777C188.164 302.899 185.449 307.678 184.223 310.114C180.545 317.048 177.217 322.858 174.24 327.543C171.437 332.041 168.372 336.07 165.044 339.631C161.366 343.567 158.301 346.378 155.849 348.064C153.572 349.751 150.857 350.594 147.704 350.594C142.45 350.594 137.808 349.376 133.78 346.94C129.927 344.316 128 341.693 128 339.069C128.35 338.694 130.277 334.571 133.78 326.7C137.283 318.641 143.764 308.615 153.222 296.621C153.222 295.122 152.784 293.247 151.908 290.999C151.032 288.75 150.594 287.438 150.594 287.063C150.594 281.628 158.564 275.069 174.502 267.385C183.435 253.142 192.806 239.086 202.614 225.218C212.598 211.35 224.771 194.952 239.133 176.023C242.636 171.338 247.102 167.496 252.532 164.498C257.962 161.499 263.391 160 268.821 160C274.426 160 278.629 160.562 281.432 161.687C284.234 162.811 285.986 164.31 286.686 166.184C287.562 168.059 288 170.682 288 174.056C287.299 179.678 286.862 183.895 286.686 186.706C284.059 209.382 282.045 228.873 280.644 245.177C279.418 261.294 278.805 277.411 278.805 293.529C278.805 308.334 279.418 321.921 280.644 334.29C280.118 338.788 278.279 342.911 275.126 346.659C271.974 350.22 268.296 352 264.092 352C256.035 352 250.693 349.845 248.066 345.534C245.614 341.224 244.388 333.915 244.388 323.608C244.388 316.111 245.351 303.086 247.277 284.533ZM213.123 263.449C216.276 262.7 221.092 261.857 227.573 260.919L248.591 257.546C250.167 231.496 252.007 212.755 254.108 201.324C247.278 209.944 233.616 230.653 213.123 263.449Z" fill="#080705"/>
<path d="M326.902 352C314.632 352 305.081 347.634 298.248 338.901C291.416 330.168 288 319.033 288 305.497C288 294.144 290.58 283.446 295.739 273.404C301.037 263.361 308.218 255.283 317.281 249.17C326.344 243.057 336.314 240 347.19 240C357.926 240 366.71 243.712 373.542 251.135C380.514 258.412 384 269.183 384 283.446C384 293.489 381.351 303.896 376.052 314.667C370.754 325.437 363.643 334.389 354.719 341.52C345.935 348.507 336.662 352 326.902 352ZM330.039 334.534C334.501 334.534 338.963 331.623 343.425 325.801C348.026 319.979 351.791 312.629 354.719 303.75C357.647 294.872 359.111 286.212 359.111 277.77C359.111 264.816 353.952 258.339 343.634 258.339C337.917 258.339 332.688 261.177 327.948 266.854C323.207 272.53 319.442 279.589 316.654 288.031C313.865 296.327 312.471 304.114 312.471 311.392C312.471 315.613 313.377 319.543 315.19 323.181C317.002 326.674 319.233 329.44 321.882 331.478C324.671 333.515 327.39 334.534 330.039 334.534Z" fill="#080705"/>
</svg>
